<?xml version="1.0" encoding="UTF-8"?>
<svg width="65px" height="71px" viewBox="0 0 65 71" version="1.1" xmlns="http://www.w3.org/2000/svg" xmlns:xlink="http://www.w3.org/1999/xlink">
    <title>Group</title>
    <g id="Page-4" stroke="none" stroke-width="1" fill="none" fill-rule="evenodd">
        <g id="Lexpulse-Logo-Samples" transform="translate(-180.000000, -151.000000)" fill="#FFFFFF">
            <g id="Group" transform="translate(180.346000, 151.829100)">
                <path d="M39.6222,27.1620709 C33.2782,27.1481 28.2332,32.1861 28.2251909,38.5421 C28.2172,44.6381 33.4802,49.8781 39.5812,49.8492198 C45.6852,49.8201 50.9172,44.5741 50.9192006,38.4821 C50.9212,32.3051 45.8032,27.1761 39.6222,27.1620709 M64.0082,38.5451 C63.9032,52.1751 52.9532,63.0531 39.4332,62.9561 C25.8482,62.8591 15.0212,51.8411 15.0501419,38.3381 C15.0782,25.4251 25.4212,13.7351 39.8572,13.9341 C54.3932,14.1351 64.1972,25.9651 64.0082,38.5451" id="Fill-23"></path>
                <polygon id="Fill-25" points="15.05 40.509 0 40.509 0 4.092 15.05 0"></polygon>
                <polygon id="Fill-27" points="15.05 40.1226 28.225 40.1226 28.225 66.6876 15.05 69.6726"></polygon>
            </g>
        </g>
    </g>
</svg>